<svg width="14" height="14" viewBox="0 0 14 14" fill="none" xmlns="http://www.w3.org/2000/svg">
<path d="M3.26683 1.86665C3.14742 1.86665 3.02788 1.91213 2.93688 2.00337L2.00355 2.9367C1.82108 3.11917 1.82108 3.4146 2.00355 3.5966L5.40693 6.99998L2.00355 10.4034C1.82108 10.5858 1.82108 10.8813 2.00355 11.0633L2.93688 11.9966C3.11935 12.1791 3.41478 12.1791 3.59678 11.9966L7.00016 8.59321L10.4035 11.9966C10.5855 12.1791 10.8814 12.1791 11.0634 11.9966L11.9968 11.0633C12.1792 10.8808 12.1792 10.5854 11.9968 10.4034L8.59339 6.99998L11.9968 3.5966C12.1792 3.4146 12.1792 3.1187 11.9968 2.9367L11.0634 2.00337C10.881 1.8209 10.5855 1.8209 10.4035 2.00337L7.00016 5.40675L3.59678 2.00337C3.50555 1.91213 3.38624 1.86665 3.26683 1.86665Z" fill="white"/>
</svg>
